<?xml version="1.0" standalone="no"?>
<!DOCTYPE svg PUBLIC "-//W3C//DTD SVG 20010904//EN"
 "http://www.w3.org/TR/2001/REC-SVG-20010904/DTD/svg10.dtd">
<svg version="1.0" xmlns="http://www.w3.org/2000/svg"
 width="300.000000pt" height="300.000000pt" viewBox="0 0 300.000000 300.000000"
 preserveAspectRatio="xMidYMid meet">
<metadata>
Created by potrace 1.11, written by Peter Selinger 2001-2013
</metadata>
<g transform="translate(0.000000,300.000000) scale(0.100000,-0.100000)"
fill="#000000" stroke="none">
<path d="M620 2270 c0 -6 -30 -10 -70 -10 -40 0 -70 -4 -70 -10 0 -5 5 -10 10
-10 6 0 10 -9 10 -20 0 -11 5 -20 10 -20 6 0 10 -9 10 -20 0 -11 5 -20 10 -20
6 0 10 -9 10 -20 0 -11 5 -20 10 -20 6 0 10 -9 10 -20 0 -11 5 -20 10 -20 6 0
10 -9 10 -20 0 -11 5 -20 10 -20 6 0 10 -9 10 -20 0 -11 5 -20 10 -20 6 0 10
-9 10 -20 0 -11 5 -20 10 -20 6 0 10 -9 10 -20 0 -11 5 -20 10 -20 6 0 10 -9
10 -20 0 -11 5 -20 10 -20 6 0 10 -9 10 -19 0 -11 6 -21 12 -23 9 -3 8 -9 -4
-21 -11 -11 -33 -17 -62 -17 -25 0 -46 -4 -46 -10 0 -5 -16 -10 -35 -10 -25 0
-44 -8 -60 -25 -23 -22 -25 -32 -25 -110 0 -50 4 -85 10 -85 6 0 10 -27 10
-60 0 -33 4 -60 10 -60 6 0 10 -27 10 -60 0 -33 4 -60 10 -60 6 0 10 -7 10
-16 0 -20 24 -44 44 -44 9 0 16 -4 16 -10 0 -5 14 -10 30 -10 17 0 30 5 30 10
0 6 23 10 50 10 28 0 50 5 50 10 0 6 23 10 50 10 28 0 50 5 50 10 0 16 109 12
126 -4 20 -20 18 -39 -6 -56 -21 -15 -28 -50 -10 -50 6 0 10 -27 10 -60 0 -33
4 -60 10 -60 6 0 10 -18 10 -40 0 -33 3 -40 20 -40 11 0 20 -4 20 -10 0 -5 14
-10 30 -10 17 0 30 5 30 10 0 15 29 12 46 -4 8 -8 14 -22 14 -30 0 -9 5 -16
10 -16 6 0 10 -9 10 -20 0 -11 5 -20 10 -20 6 0 10 -9 10 -20 0 -11 5 -20 10
-20 6 0 10 -9 10 -20 0 -11 5 -20 10 -20 6 0 10 -9 10 -20 0 -11 5 -20 10 -20
6 0 10 -9 10 -20 0 -11 5 -20 10 -20 6 0 10 -9 10 -20 0 -11 5 -20 10 -20 6 0
10 -9 10 -20 0 -11 5 -20 10 -20 6 0 10 -9 10 -20 0 -11 5 -20 10 -20 6 0 10
-9 10 -20 0 -11 5 -20 10 -20 6 0 10 -9 10 -20 0 -11 5 -20 10 -20 6 0 10 -9
10 -20 0 -11 5 -20 10 -20 6 0 10 -9 10 -20 0 -11 5 -20 10 -20 6 0 10 -9 10
-20 0 -11 5 -20 10 -20 6 0 10 -9 10 -20 0 -11 5 -20 10 -20 6 0 10 -9 10 -20
0 -11 5 -20 10 -20 6 0 10 -9 10 -20 0 -11 5 -20 10 -20 6 0 10 -9 10 -20 0
-11 3 -20 6 -20 11 0 34 29 34 44 0 9 5 16 10 16 6 0 10 9 10 20 0 11 5 20 10
20 6 0 10 9 10 20 0 11 5 20 10 20 6 0 10 9 10 20 0 11 5 20 10 20 6 0 10 9
10 20 0 11 5 20 10 20 6 0 10 9 10 20 0 11 5 20 10 20 6 0 10 9 10 20 0 11 5
20 10 20 6 0 10 9 10 20 0 11 5 20 10 20 6 0 10 9 10 20 0 11 5 20 10 20 6 0
10 9 10 20 0 11 5 20 10 20 6 0 10 9 10 20 0 11 5 20 10 20 6 0 10 9 10 20 0
11 5 20 10 20 6 0 10 9 10 20 0 11 5 20 10 20 6 0 10 9 10 20 0 11 5 20 10 20
6 0 10 9 10 20 0 11 5 20 10 20 6 0 10 9 10 20 0 11 5 20 10 20 6 0 10 9 10
20 0 11 5 20 10 20 6 0 10 9 10 20 0 16 7 20 30 20 17 0 30 -4 30 -10 0 -20
51 -10 75 15 21 20 25 34 25 80 0 30 5 55 10 55 6 0 10 27 10 60 0 33 -4 60
-10 60 -5 0 -10 14 -10 30 l0 30 60 0 c33 0 60 -4 60 -10 0 -5 23 -10 50 -10
28 0 50 -4 50 -10 0 -5 23 -10 50 -10 28 0 50 -4 50 -10 0 -5 14 -10 30 -10
17 0 30 5 30 10 0 6 7 10 15 10 29 0 65 47 65 85 0 19 5 35 10 35 6 0 10 27
10 60 0 33 4 60 10 60 6 0 10 27 10 60 0 33 4 60 10 60 6 0 10 20 10 45 0 39
-5 51 -35 80 -26 27 -43 35 -70 35 -19 0 -35 5 -35 10 0 6 -22 10 -50 10 -49
0 -50 1 -50 30 0 17 5 30 10 30 6 0 10 9 10 20 0 11 5 20 10 20 6 0 10 9 10
20 0 11 5 20 10 20 6 0 10 9 10 20 0 11 5 20 10 20 6 0 10 9 10 20 0 11 5 20
10 20 6 0 10 9 10 20 0 11 5 20 10 20 6 0 10 9 10 20 0 11 5 20 10 20 6 0 10
9 10 20 0 11 5 20 10 20 6 0 10 9 10 20 0 11 5 20 10 20 6 0 10 9 10 20 0 11
5 20 10 20 6 0 10 9 10 20 0 13 -7 20 -19 20 -11 0 -22 6 -25 13 -5 10 -7 10
-12 0 -7 -17 -1804 -19 -1804 -3 0 6 -4 10 -10 10 -5 0 -10 -4 -10 -10z m1840
-50 c0 -11 -4 -20 -10 -20 -5 0 -10 -9 -10 -20 0 -11 -4 -20 -10 -20 -5 0 -10
-9 -10 -20 0 -11 -4 -20 -10 -20 -5 0 -10 -9 -10 -20 0 -11 -4 -20 -10 -20 -5
0 -10 -9 -10 -20 0 -11 -4 -20 -10 -20 -5 0 -10 -9 -10 -20 0 -11 -4 -20 -10
-20 -5 0 -10 -9 -10 -20 0 -11 -4 -20 -10 -20 -5 0 -10 -9 -10 -20 0 -11 -4
-20 -10 -20 -5 0 -10 -9 -10 -20 0 -11 -4 -20 -10 -20 -5 0 -10 -9 -10 -20 0
-11 -4 -20 -10 -20 -5 0 -10 -9 -10 -20 0 -16 -7 -20 -30 -20 -16 0 -30 5 -30
10 0 6 -30 10 -70 10 -63 0 -70 2 -70 20 0 11 5 20 10 20 6 0 10 14 10 30 0
17 5 30 10 30 6 0 10 14 10 30 0 17 -4 30 -10 30 -5 0 -10 16 -10 35 0 27 -8
44 -35 70 -19 19 -41 35 -50 35 -8 0 -15 5 -15 10 0 6 -30 10 -70 10 -40 0
-70 -4 -70 -10 0 -5 -7 -10 -15 -10 -20 0 -65 -45 -65 -65 0 -8 -3 -15 -8 -15
-9 0 -32 -72 -32 -100 0 -11 5 -20 10 -20 6 0 10 -13 10 -30 l0 -30 -290 0
-290 0 0 45 c0 39 -5 51 -35 80 -24 25 -43 35 -65 35 -22 0 -41 -10 -65 -35
-30 -29 -35 -41 -35 -79 0 -26 5 -46 12 -48 9 -3 8 -9 -4 -21 -13 -13 -35 -17
-92 -17 -44 0 -76 -4 -76 -10 0 -15 -49 -12 -66 4 -8 8 -14 22 -14 30 0 9 -4
16 -10 16 -5 0 -10 9 -10 20 0 11 -4 20 -10 20 -5 0 -10 9 -10 20 0 11 -4 20
-10 20 -5 0 -10 9 -10 20 0 11 -4 20 -10 20 -5 0 -10 9 -10 20 0 11 -4 20 -10
20 -5 0 -10 9 -10 20 0 11 -4 20 -10 20 -5 0 -10 9 -10 20 0 11 -4 20 -10 20
-5 0 -10 9 -10 20 0 11 -4 20 -10 20 -5 0 -10 9 -10 20 0 11 -4 20 -10 20 -5
0 -10 9 -10 20 0 11 -4 20 -10 20 -5 0 -10 5 -10 10 0 7 330 10 970 10 963 0
970 0 970 -20z m-1074 -494 c8 -8 14 -22 14 -30 0 -9 5 -16 10 -16 6 0 10 -13
10 -30 0 -16 5 -30 10 -30 6 0 10 -9 10 -20 0 -11 5 -20 10 -20 6 0 10 -13 10
-30 0 -16 5 -30 10 -30 6 0 10 -9 10 -20 0 -16 -7 -20 -30 -20 -21 0 -30 5
-30 16 0 25 -26 44 -60 44 -34 0 -60 -19 -60 -44 0 -12 -10 -16 -40 -16 -22 0
-40 -4 -40 -10 0 -6 -30 -10 -70 -10 l-70 0 0 40 c0 22 5 40 10 40 6 0 10 9
10 20 0 11 5 20 10 20 6 0 10 8 10 18 0 10 9 24 20 32 31 23 24 30 -30 30 -39
0 -50 4 -50 16 0 31 27 44 94 44 l66 0 0 -30 c0 -16 -4 -30 -10 -30 -5 0 -10
-9 -10 -20 0 -11 -4 -20 -10 -20 -5 0 -10 -9 -10 -20 0 -11 -4 -20 -10 -20 -5
0 -10 -9 -10 -20 0 -11 -4 -20 -10 -20 -5 0 -10 -9 -10 -20 0 -11 5 -20 10
-20 6 0 10 5 10 10 0 6 18 10 40 10 22 0 40 -4 40 -10 0 -5 5 -10 10 -10 6 0
10 14 10 30 0 17 5 30 10 30 6 0 10 14 10 30 0 17 5 30 10 30 6 0 10 14 10 30
0 17 5 30 10 30 6 0 10 7 10 15 0 20 21 44 38 45 7 0 20 -6 28 -14z m374 -16
c0 -27 -3 -30 -30 -30 l-30 0 0 -86 c0 -88 -10 -114 -44 -114 -14 0 -16 16
-16 100 l0 100 -28 0 c-24 0 -28 4 -30 30 l-2 30 90 0 90 0 0 -30z m80 -110
l0 -120 -30 0 -30 0 0 90 c0 53 4 90 10 90 6 0 10 14 10 30 0 23 4 30 20 30
19 0 20 -7 20 -120z m146 106 c8 -8 14 -22 14 -30 0 -9 5 -16 10 -16 6 0 10
-22 10 -50 0 -43 3 -50 20 -50 13 0 20 7 20 20 0 11 5 20 10 20 6 0 10 9 10
20 0 11 5 20 10 20 6 0 10 7 10 16 0 38 57 58 86 30 16 -17 20 -106 4 -106 -6
0 -10 -30 -10 -70 l0 -70 -30 0 c-29 0 -30 1 -30 50 0 28 5 50 10 50 6 0 10
18 10 40 0 22 -4 40 -10 40 -5 0 -10 -9 -10 -20 0 -11 -4 -20 -10 -20 -5 0
-10 -9 -10 -20 0 -11 -4 -20 -10 -20 -5 0 -10 -9 -10 -20 0 -11 -4 -20 -10
-20 -5 0 -10 -9 -10 -20 0 -16 -7 -20 -30 -20 -26 0 -30 3 -30 29 0 16 -4 31
-9 33 -6 2 -11 24 -12 51 -3 45 -19 69 -19 27 0 -11 -4 -20 -10 -20 -5 0 -10
-22 -10 -50 0 -49 -1 -50 -30 -50 -23 0 -30 4 -30 20 0 11 5 20 10 20 6 0 10
35 10 85 0 55 5 91 13 100 16 19 55 19 73 1z m-958 -23 c12 -12 13 -18 4 -21
-6 -2 -12 -12 -12 -23 0 -10 -4 -19 -10 -19 -5 0 -10 -9 -10 -20 0 -11 -4 -20
-10 -20 -5 0 -10 -9 -10 -20 0 -11 -4 -20 -10 -20 -5 0 -10 -9 -10 -20 0 -17
7 -20 50 -20 43 0 50 -3 50 -20 0 -16 -7 -20 -30 -20 -16 0 -30 -4 -30 -10 0
-17 -90 -12 -108 7 -12 12 -13 18 -4 21 6 2 12 12 12 23 0 10 5 19 10 19 6 0
10 9 10 20 0 11 5 20 10 20 6 0 10 9 10 20 0 11 5 20 10 20 6 0 10 14 10 30 0
17 -4 30 -10 30 -5 0 -10 -4 -10 -10 0 -5 -18 -10 -40 -10 -33 0 -40 3 -40 20
0 16 7 20 30 20 17 0 30 5 30 10 0 17 90 12 108 -7z m-202 -17 c9 -10 14 -37
14 -80 0 -37 4 -66 10 -66 16 0 12 -70 -5 -86 -26 -26 -45 5 -45 70 0 31 -4
56 -10 56 -6 0 -10 27 -10 60 0 48 3 60 16 60 8 0 22 -6 30 -14z m1474 4 c0
-5 23 -10 50 -10 49 0 50 -1 50 -30 0 -23 -4 -30 -20 -30 -11 0 -20 5 -20 10
0 6 -13 10 -30 10 -27 0 -30 -3 -30 -30 0 -28 2 -30 40 -30 33 0 40 -3 40 -20
0 -17 -7 -20 -50 -20 -49 0 -50 -1 -50 -30 0 -28 3 -30 36 -30 19 0 42 -7 50
-15 14 -13 14 -17 0 -30 -17 -17 -46 -20 -46 -5 0 6 -16 10 -36 10 -19 0 -42
6 -50 14 -16 17 -19 46 -4 46 6 0 10 23 10 50 0 28 5 50 10 50 6 0 10 16 10
35 0 20 6 42 13 50 14 17 27 19 27 5z m-1600 -20 c0 -5 9 -10 20 -10 15 0 20
-7 20 -29 0 -16 6 -32 13 -35 10 -5 10 -7 0 -12 -7 -3 -13 -12 -13 -21 0 -19
-24 -43 -44 -43 -9 0 -16 -4 -16 -10 0 -5 -9 -10 -20 -10 -11 0 -20 -4 -20
-10 0 -5 5 -10 10 -10 6 0 10 -13 10 -30 0 -27 -3 -30 -30 -30 -29 0 -30 2
-30 44 0 25 -4 48 -10 51 -5 3 -10 37 -10 76 l0 69 30 0 c17 0 30 5 30 10 0 6
14 10 30 10 17 0 30 -4 30 -10z m1160 -300 c0 -6 33 -10 80 -10 47 0 80 -4 80
-10 0 -5 -4 -10 -10 -10 -5 0 -10 -9 -10 -20 0 -11 -4 -20 -10 -20 -18 0 -11
-35 10 -50 14 -10 20 -26 20 -52 0 -21 -4 -38 -10 -38 -5 0 -10 -25 -10 -55 0
-46 -4 -60 -25 -80 -24 -25 -55 -33 -55 -15 0 6 -18 10 -40 10 -33 0 -40 -3
-40 -20 0 -11 -4 -20 -10 -20 -5 0 -10 -9 -10 -20 0 -11 -4 -20 -10 -20 -5 0
-10 -9 -10 -20 0 -11 -4 -20 -10 -20 -5 0 -10 -9 -10 -20 0 -11 -4 -20 -10
-20 -5 0 -10 -9 -10 -20 0 -11 -4 -20 -10 -20 -5 0 -10 -9 -10 -20 0 -11 -4
-20 -10 -20 -5 0 -10 -13 -10 -30 0 -16 -4 -30 -10 -30 -5 0 -10 -8 -10 -18 0
-10 -9 -24 -20 -32 -11 -8 -20 -22 -20 -32 0 -10 -4 -18 -10 -18 -5 0 -10 -13
-10 -30 0 -16 -4 -30 -10 -30 -5 0 -10 -9 -10 -20 0 -11 -4 -20 -10 -20 -5 0
-10 -8 -10 -18 0 -10 -9 -24 -20 -32 -12 -8 -20 -26 -20 -42 0 -15 -4 -28 -10
-28 -5 0 -10 -9 -10 -20 0 -11 -4 -20 -10 -20 -5 0 -10 -7 -10 -16 0 -15 -23
-44 -34 -44 -3 0 -6 9 -6 20 0 11 -4 20 -10 20 -5 0 -10 9 -10 20 0 11 -4 20
-10 20 -5 0 -10 9 -10 20 0 11 -4 20 -10 20 -5 0 -10 9 -10 20 0 11 -4 20 -10
20 -5 0 -10 9 -10 20 0 11 -4 20 -10 20 -5 0 -10 9 -10 20 0 11 -4 20 -10 20
-5 0 -10 9 -10 20 0 11 -4 20 -10 20 -5 0 -10 9 -10 20 0 11 -4 20 -10 20 -5
0 -10 9 -10 20 0 11 -4 20 -10 20 -5 0 -10 9 -10 20 0 11 -4 20 -10 20 -5 0
-10 9 -10 20 0 11 -4 20 -10 20 -5 0 -10 9 -10 20 0 11 -4 20 -10 20 -5 0 -10
9 -10 20 0 11 -4 20 -10 20 -5 0 -10 9 -10 20 0 11 -4 20 -10 20 -5 0 -10 9
-10 20 0 11 -4 20 -10 20 -5 0 -10 9 -10 20 0 11 -4 20 -10 20 -5 0 -10 12
-10 26 0 14 -6 32 -14 40 -17 16 -66 19 -66 4 0 -15 -49 -12 -66 4 -8 8 -14
26 -14 40 0 14 -4 26 -10 26 -6 0 -10 26 -10 59 0 38 -5 61 -12 65 -10 5 -10
7 0 12 6 3 12 14 12 25 0 12 7 19 20 19 11 0 20 5 20 10 0 6 -4 10 -10 10 -5
0 -10 9 -10 20 0 11 -4 20 -10 20 -5 0 -10 9 -10 20 0 18 7 20 70 20 40 0 70
4 70 10 0 6 130 10 370 10 240 0 370 -4 370 -10z"/>
<path d="M1403 2095 c-13 -13 -23 -31 -23 -40 0 -8 -4 -15 -10 -15 -5 0 -10
-13 -10 -30 0 -16 5 -30 10 -30 6 0 10 -7 10 -16 0 -8 6 -22 14 -30 8 -8 22
-14 30 -14 9 0 16 -4 16 -10 0 -5 14 -10 30 -10 17 0 30 5 30 10 0 6 7 10 15
10 32 0 65 47 65 90 0 33 -6 47 -35 75 -29 29 -41 35 -77 34 -32 0 -49 -6 -65
-24z"/>
<path d="M1340 1620 c0 -33 3 -40 20 -40 24 0 28 43 6 66 -22 21 -26 17 -26
-26z"/>
<path d="M620 1590 c0 -5 5 -10 10 -10 6 0 10 -13 10 -30 0 -36 4 -37 36 -5
22 22 23 27 10 40 -16 17 -66 20 -66 5z"/>
<path d="M1373 1225 c-7 -8 -13 -26 -13 -40 0 -14 -4 -25 -10 -25 -5 0 -10
-18 -10 -40 0 -22 5 -40 10 -40 6 0 10 9 10 20 0 17 7 20 39 20 22 0 41 -5 44
-12 2 -8 8 -9 13 -4 5 5 4 11 -3 13 -7 3 -13 18 -13 34 0 16 -4 29 -10 29 -5
0 -10 7 -10 16 0 13 -23 45 -32 44 -2 -1 -9 -7 -15 -15z m27 -55 c0 -16 -4
-30 -10 -30 -5 0 -10 14 -10 30 0 17 5 30 10 30 6 0 10 -13 10 -30z"/>
<path d="M1480 1170 l0 -70 40 0 c22 0 40 5 40 10 0 6 -9 10 -20 10 -18 0 -20
7 -20 60 0 53 -2 60 -20 60 -18 0 -20 -7 -20 -70z"/>
<path d="M1620 1220 c0 -11 -4 -20 -10 -20 -5 0 -10 -13 -10 -30 0 -16 -4 -30
-10 -30 -5 0 -10 -9 -10 -20 0 -11 5 -20 10 -20 6 0 10 5 10 10 0 6 18 10 40
10 22 0 40 -4 40 -10 0 -5 5 -10 10 -10 6 0 10 9 10 20 0 11 -4 20 -10 20 -5
0 -10 16 -10 36 0 38 -18 64 -44 64 -9 0 -16 -8 -16 -20z m40 -60 c0 -13 -7
-20 -20 -20 -13 0 -20 7 -20 20 0 13 7 20 20 20 13 0 20 -7 20 -20z"/>
<path d="M1180 1190 c0 -16 5 -30 10 -30 6 0 10 -18 10 -40 0 -22 5 -40 10
-40 6 0 10 14 10 30 0 27 3 30 30 30 27 0 30 -3 30 -30 0 -16 5 -30 10 -30 6
0 10 30 10 70 0 63 -2 70 -20 70 -16 0 -20 -7 -20 -30 0 -23 -4 -30 -20 -30
-12 0 -20 7 -20 16 0 15 -23 44 -34 44 -3 0 -6 -13 -6 -30z"/>
<path d="M1740 1150 l0 -70 30 0 c17 0 30 5 30 10 0 6 -9 10 -20 10 -18 0 -20
7 -20 60 0 33 -4 60 -10 60 -6 0 -10 -30 -10 -70z"/>
<path d="M1580 1020 c0 -13 7 -20 20 -20 11 0 20 -4 20 -10 0 -16 109 -12 126
4 22 23 17 26 -36 26 -27 0 -50 5 -50 10 0 6 -18 10 -40 10 -33 0 -40 -3 -40
-20z"/>
<path d="M1423 948 c-13 -6 -23 -15 -23 -20 0 -4 -9 -8 -20 -8 -13 0 -20 -7
-20 -20 0 -11 -4 -20 -10 -20 -5 0 -10 -25 -10 -55 0 -50 3 -59 35 -90 19 -19
41 -35 50 -35 8 0 15 -4 15 -10 0 -5 14 -10 30 -10 17 0 30 5 30 10 0 6 7 10
15 10 20 0 65 45 65 65 0 8 5 15 10 15 6 0 10 18 10 40 0 22 -4 40 -10 40 -5
0 -10 7 -10 15 0 9 -16 31 -35 50 -37 37 -77 45 -122 23z"/>
</g>
</svg>
